<svg id="naglowek" xmlns="http://www.w3.org/2000/svg" xmlns:xlink="http://www.w3.org/1999/xlink" width="722.301" height="121.924" viewBox="0 0 722.301 121.924">
  <defs>
    <style>
      .cls-1, .cls-4 {
        fill: none;
      }

      .cls-2 {
        clip-path: url(#clip-path);
      }

      .cls-3 {
        fill: #b6a38d;
      }

      .cls-4 {
        stroke: #b6a38d;
        stroke-miterlimit: 10;
      }
    </style>
    <clipPath id="clip-path">
      <rect id="Rectangle_18" data-name="Rectangle 18" class="cls-1" width="722.301" height="121.924"/>
    </clipPath>
  </defs>
  <g id="Group_14" data-name="Group 14" class="cls-2">
    <path id="Path_124" data-name="Path 124" class="cls-3" d="M67.224,124.777h-10.8a3.9,3.9,0,0,1-3.031-1.443L24,87.128a3.9,3.9,0,0,0-6.935,2.46v31.285a3.9,3.9,0,0,1-3.9,3.9H4.4a3.9,3.9,0,0,1-3.9-3.9v-59.6a3.9,3.9,0,0,1,3.9-3.9H15.2a3.906,3.906,0,0,1,3.034,1.446L47.628,95.1a3.9,3.9,0,0,0,6.937-2.458V61.276a3.9,3.9,0,0,1,3.9-3.9h8.755a3.9,3.9,0,0,1,3.9,3.9v59.6a3.9,3.9,0,0,1-3.9,3.9" transform="translate(-0.205 -23.478)"/>
    <path id="Path_125" data-name="Path 125" class="cls-3" d="M130.911,72.653a29.066,29.066,0,0,1,10.765-11.83,28.669,28.669,0,0,1,15.2-4.14,26.738,26.738,0,0,1,12.835,2.957,26.058,26.058,0,0,1,8.815,7.454V61.651a3.9,3.9,0,0,1,3.9-3.9h8.873a3.9,3.9,0,0,1,3.9,3.9v57.731a3.9,3.9,0,0,1-3.9,3.9h-8.873a3.9,3.9,0,0,1-3.9-3.9V113.7a24.643,24.643,0,0,1-8.815,7.629,26.943,26.943,0,0,1-12.953,3.018,27.862,27.862,0,0,1-15.084-4.258,29.792,29.792,0,0,1-10.765-12.008,38.543,38.543,0,0,1-3.963-17.805,37.93,37.93,0,0,1,3.963-17.627m45.252,7.514a16.706,16.706,0,0,0-6.389-6.627,17.089,17.089,0,0,0-8.637-2.306,16.633,16.633,0,0,0-14.846,8.813,20.569,20.569,0,0,0-2.426,10.233,21.235,21.235,0,0,0,2.426,10.352,17.427,17.427,0,0,0,6.389,6.8,16.213,16.213,0,0,0,8.457,2.366,17.09,17.09,0,0,0,8.637-2.306,16.694,16.694,0,0,0,6.389-6.624,21.271,21.271,0,0,0,2.366-10.352,21.26,21.26,0,0,0-2.366-10.351" transform="translate(-51.946 -23.196)"/>
    <path id="Path_126" data-name="Path 126" class="cls-3" d="M277.684,60.865a3.9,3.9,0,0,0-3.9,3.9v27.8q0,3.313,1.6,4.789t5.381,1.479h3.787a3.9,3.9,0,0,1,3.9,3.9v6.153a3.9,3.9,0,0,1-3.9,3.9H278.04q-20.94,0-20.941-20.346V64.768a3.9,3.9,0,0,0-3.9-3.9,3.9,3.9,0,0,1-3.9-3.9v-5.8a3.9,3.9,0,0,1,3.9-3.9,3.9,3.9,0,0,0,3.9-3.9v-8.4a3.9,3.9,0,0,1,3.9-3.9h8.872a3.9,3.9,0,0,1,3.9,3.9v8.4a3.9,3.9,0,0,0,3.9,3.9h6.863a3.9,3.9,0,0,1,3.9,3.9v5.8a3.9,3.9,0,0,1-3.9,3.9Z" transform="translate(-102.008 -12.708)"/>
    <path id="Path_127" data-name="Path 127" class="cls-3" d="M320.739,72.653A29.066,29.066,0,0,1,331.5,60.823a28.669,28.669,0,0,1,15.2-4.14,26.738,26.738,0,0,1,12.835,2.957,26.058,26.058,0,0,1,8.815,7.454V61.651a3.9,3.9,0,0,1,3.9-3.9h8.873a3.9,3.9,0,0,1,3.9,3.9v57.731a3.9,3.9,0,0,1-3.9,3.9H372.26a3.9,3.9,0,0,1-3.9-3.9V113.7a24.643,24.643,0,0,1-8.815,7.629,26.943,26.943,0,0,1-12.953,3.018,27.862,27.862,0,0,1-15.084-4.258,29.792,29.792,0,0,1-10.765-12.008,38.543,38.543,0,0,1-3.963-17.805,37.93,37.93,0,0,1,3.963-17.627m45.252,7.514A16.7,16.7,0,0,0,359.6,73.54a17.089,17.089,0,0,0-8.637-2.306,16.633,16.633,0,0,0-14.846,8.813,20.569,20.569,0,0,0-2.426,10.233,21.235,21.235,0,0,0,2.426,10.352,17.427,17.427,0,0,0,6.389,6.8,16.213,16.213,0,0,0,8.457,2.366,17.09,17.09,0,0,0,8.637-2.306,16.694,16.694,0,0,0,6.389-6.624,21.271,21.271,0,0,0,2.366-10.352,21.26,21.26,0,0,0-2.366-10.351" transform="translate(-129.622 -23.196)"/>
    <path id="Path_128" data-name="Path 128" class="cls-3" d="M464.494,25.145v79.734a3.9,3.9,0,0,1-3.9,3.9h-8.755a3.9,3.9,0,0,1-3.9-3.9V25.145a3.9,3.9,0,0,1,3.9-3.9h8.755a3.9,3.9,0,0,1,3.9,3.9" transform="translate(-183.289 -8.692)"/>
    <path id="Path_129" data-name="Path 129" class="cls-3" d="M491.679,29.052a9.187,9.187,0,0,1-2.9-6.92,9.2,9.2,0,0,1,2.9-6.923,10.915,10.915,0,0,1,14.552,0,9.206,9.206,0,0,1,2.9,6.923,9.2,9.2,0,0,1-2.9,6.92,10.913,10.913,0,0,1-14.552,0m15.44,14.491v57.731a3.9,3.9,0,0,1-3.9,3.9H494.46a3.9,3.9,0,0,1-3.9-3.9V43.543a3.9,3.9,0,0,1,3.9-3.9h8.755a3.9,3.9,0,0,1,3.9,3.9" transform="translate(-200.005 -5.087)"/>
    <path id="Path_130" data-name="Path 130" class="cls-3" d="M532.394,72.653a29.066,29.066,0,0,1,10.765-11.83,28.669,28.669,0,0,1,15.2-4.14A26.739,26.739,0,0,1,571.2,59.64a26.058,26.058,0,0,1,8.816,7.454V61.651a3.9,3.9,0,0,1,3.9-3.9h8.873a3.9,3.9,0,0,1,3.9,3.9v57.731a3.9,3.9,0,0,1-3.9,3.9h-8.873a3.9,3.9,0,0,1-3.9-3.9V113.7a24.643,24.643,0,0,1-8.816,7.629,26.943,26.943,0,0,1-12.953,3.018,27.862,27.862,0,0,1-15.084-4.258,29.792,29.792,0,0,1-10.765-12.008,38.542,38.542,0,0,1-3.963-17.805,37.93,37.93,0,0,1,3.963-17.627m45.252,7.514a16.706,16.706,0,0,0-6.389-6.627,17.089,17.089,0,0,0-8.637-2.306,16.633,16.633,0,0,0-14.846,8.813,20.569,20.569,0,0,0-2.426,10.233,21.235,21.235,0,0,0,2.426,10.352,17.427,17.427,0,0,0,6.389,6.8,16.213,16.213,0,0,0,8.457,2.366,17.09,17.09,0,0,0,8.637-2.306,16.694,16.694,0,0,0,6.389-6.624,21.271,21.271,0,0,0,2.366-10.352,21.26,21.26,0,0,0-2.366-10.351" transform="translate(-216.229 -23.196)"/>
    <path id="Path_131" data-name="Path 131" class="cls-3" d="M734.311,108.419H714a2,2,0,0,1-2-2V63.448a4.963,4.963,0,0,0-4.963-4.962h-6.58a5.035,5.035,0,0,0-5.02,5.02v56.511a4.963,4.963,0,0,0,4.963,4.964h36.12c1.486,0,2.69-1.858,2.69-4.149v-8.207c.294-3.4-3.181-4.356-4.892-4.206" transform="translate(-284.563 -23.934)"/>
    <path id="Path_132" data-name="Path 132" class="cls-3" d="M836.99,62.39V120.12a3.9,3.9,0,0,1-3.9,3.9h-8.873a3.9,3.9,0,0,1-3.9-3.9v-4.377a21.85,21.85,0,0,1-8.339,6.684,25.921,25.921,0,0,1-11.182,2.424,27.731,27.731,0,0,1-13.6-3.253,22.9,22.9,0,0,1-9.287-9.582,31.644,31.644,0,0,1-3.371-15.083V62.39a3.9,3.9,0,0,1,3.9-3.9h8.755a3.9,3.9,0,0,1,3.9,3.9V94.567q0,7.809,3.9,12.008t10.648,4.2q6.862,0,10.768-4.2t3.9-12.008V62.39a3.9,3.9,0,0,1,3.9-3.9h8.873a3.9,3.9,0,0,1,3.9,3.9" transform="translate(-316.929 -23.934)"/>
    <path id="Path_133" data-name="Path 133" class="cls-3" d="M921.447,45.137a27.183,27.183,0,0,1,12.836-2.957,28.686,28.686,0,0,1,15.2,4.141,29.166,29.166,0,0,1,10.766,11.772,37.845,37.845,0,0,1,3.963,17.685,38.567,38.567,0,0,1-3.963,17.8,29.823,29.823,0,0,1-10.766,12.008,28.087,28.087,0,0,1-15.2,4.258,27.155,27.155,0,0,1-12.836-2.9,24.92,24.92,0,0,1-8.813-7.512v5.443a3.9,3.9,0,0,1-3.9,3.9h-8.755a3.9,3.9,0,0,1-3.9-3.9V25.145a3.9,3.9,0,0,1,3.9-3.9h8.755a3.9,3.9,0,0,1,3.9,3.9V43.7a3.85,3.85,0,0,0,6.155,3.03,27.757,27.757,0,0,1,2.657-1.591m23.426,20.407a16.821,16.821,0,0,0-6.389-6.564,17.117,17.117,0,0,0-8.577-2.249,16.55,16.55,0,0,0-8.459,2.306,17.138,17.138,0,0,0-6.389,6.684,20.906,20.906,0,0,0-2.424,10.294,20.886,20.886,0,0,0,2.424,10.291,17.128,17.128,0,0,0,6.389,6.685,16.7,16.7,0,0,0,17.037-.06,17.565,17.565,0,0,0,6.389-6.742A21.179,21.179,0,0,0,947.3,75.777a20.6,20.6,0,0,0-2.424-10.233" transform="translate(-366.664 -8.693)"/>
    <path id="Path_134" data-name="Path 134" class="cls-3" d="M1029.217,120.151a30.2,30.2,0,0,1-11.888-11.888,35.6,35.6,0,0,1-4.319-17.745,34.863,34.863,0,0,1,4.437-17.745,30.822,30.822,0,0,1,12.126-11.89,37.125,37.125,0,0,1,34.309,0,30.841,30.841,0,0,1,12.126,11.89,34.87,34.87,0,0,1,4.436,17.745,34.184,34.184,0,0,1-4.554,17.745,31.55,31.55,0,0,1-12.3,11.888,35.775,35.775,0,0,1-17.332,4.2,34.515,34.515,0,0,1-17.037-4.2m25.5-12.422a15.907,15.907,0,0,0,6.329-6.564,22.14,22.14,0,0,0,2.366-10.647q0-9.344-4.91-14.374a16.139,16.139,0,0,0-12.008-5.028,15.753,15.753,0,0,0-11.888,5.028q-4.794,5.029-4.793,14.374t4.675,14.371a15.374,15.374,0,0,0,11.771,5.028,17.221,17.221,0,0,0,8.459-2.188" transform="translate(-414.514 -23.196)"/>
    <path id="Path_135" data-name="Path 135" class="cls-3" d="M1144.692,121.452a25.511,25.511,0,0,1-10.116-7.865,20.564,20.564,0,0,1-3.082-5.8,3.931,3.931,0,0,1,3.708-5.206h9.157a3.757,3.757,0,0,1,3.44,2.38,9.482,9.482,0,0,0,3.1,3.891,12.964,12.964,0,0,0,8.1,2.484,12.586,12.586,0,0,0,7.394-1.893,5.73,5.73,0,0,0,2.661-4.852,5.116,5.116,0,0,0-3.253-4.789,61.407,61.407,0,0,0-10.352-3.491,87.37,87.37,0,0,1-12.008-3.666,20.777,20.777,0,0,1-8.043-5.8q-3.373-3.9-3.373-10.527a16.981,16.981,0,0,1,3.135-9.937,21.048,21.048,0,0,1,8.991-7.1,33.709,33.709,0,0,1,13.783-2.6q11.711,0,18.693,5.857a20.949,20.949,0,0,1,7.143,11.927,3.2,3.2,0,0,1-3.137,3.865h-9.576a3.218,3.218,0,0,1-3.046-2.231,8.354,8.354,0,0,0-2.8-3.98,12.091,12.091,0,0,0-7.75-2.306,12.225,12.225,0,0,0-6.921,1.654,5.284,5.284,0,0,0-2.423,4.615,5.416,5.416,0,0,0,3.311,5.028,51.324,51.324,0,0,0,10.294,3.491,87.475,87.475,0,0,1,11.71,3.667,20.671,20.671,0,0,1,7.985,5.855q3.373,3.965,3.492,10.469a17.368,17.368,0,0,1-3.136,10.176,20.661,20.661,0,0,1-8.99,7.038,34.067,34.067,0,0,1-13.666,2.544,34.563,34.563,0,0,1-14.432-2.9" transform="translate(-462.91 -23.196)"/>
    <path id="Path_136" data-name="Path 136" class="cls-4" d="M71.24,10.332A50.92,50.92,0,0,1,93.082,31.005q7.595,13.45,7.6,31.654t-7.6,31.568A50.024,50.024,0,0,1,71.24,114.648q-14.255,7.059-33.705,7.059H4.635A4.134,4.134,0,0,1,.5,117.573V7.7A4.6,4.6,0,0,1,5.1,3.1H37.535Q56.989,3.1,71.24,10.332ZM72.69,96.78Q84.8,84.616,84.806,62.66q0-22.126-12.2-34.546T37.535,15.69h-15.2a6.3,6.3,0,0,0-6.3,6.3v80.658a6.3,6.3,0,0,0,6.3,6.3h15.2Q60.574,108.945,72.69,96.78Z" transform="translate(-0.205 -1.269)"/>
    <path id="Path_137" data-name="Path 137" class="cls-4" d="M269.355,21.868V48.922a6.3,6.3,0,0,0,6.3,6.3H306.4a6.3,6.3,0,0,1,6.3,6.3v.166a6.3,6.3,0,0,1-6.3,6.3H275.654a6.3,6.3,0,0,0-6.3,6.3v28.244a6.3,6.3,0,0,0,6.3,6.3h35.867a6.3,6.3,0,0,1,6.3,6.3v.166a6.3,6.3,0,0,1-6.3,6.3h-51.4a6.3,6.3,0,0,1-6.3-6.3V9.105a6.3,6.3,0,0,1,6.3-6.3h51.4a6.3,6.3,0,0,1,6.3,6.3v.166a6.3,6.3,0,0,1-6.3,6.3H275.654A6.3,6.3,0,0,0,269.355,21.868Z" transform="translate(-103.862 -1.149)"/>
    <path id="Path_138" data-name="Path 138" class="cls-4" d="M465.856,117.665a35.044,35.044,0,0,1-14.589-11.573,28.554,28.554,0,0,1-4.384-9.239,6.282,6.282,0,0,1,6.1-7.865h4.238a6.292,6.292,0,0,1,6.02,4.466,21.571,21.571,0,0,0,6.025,9.574q6.06,5.7,17.666,5.7,11.089,0,17.493-5.531a17.919,17.919,0,0,0,6.4-14.212q0-6.8-3.757-11.061a24.014,24.014,0,0,0-9.386-6.461A146.376,146.376,0,0,0,482.5,66.7a134,134,0,0,1-18.856-6.129,30.308,30.308,0,0,1-12.116-9.613q-5.04-6.551-5.037-17.615a30.438,30.438,0,0,1,4.95-17.183A32.2,32.2,0,0,1,465.346,4.588,49.042,49.042,0,0,1,485.908.5Q502.633.5,513.3,8.842a30.5,30.5,0,0,1,10.156,13.723,6.287,6.287,0,0,1-5.941,8.4H513.1a6.394,6.394,0,0,1-5.895-4.079,20.128,20.128,0,0,0-6.107-7.919q-6.315-5.185-16.723-5.192-9.73,0-15.873,5.019T462.36,32.833a15.186,15.186,0,0,0,3.669,10.556,23.65,23.65,0,0,0,9.043,6.208q5.375,2.134,15.1,4.853a141.6,141.6,0,0,1,18.945,6.381,31.606,31.606,0,0,1,12.286,9.7q5.12,6.551,5.12,17.781a31.193,31.193,0,0,1-4.607,16.339,33.812,33.812,0,0,1-13.652,12.417q-9.05,4.767-21.332,4.766A51.02,51.02,0,0,1,465.856,117.665Z" transform="translate(-182.698 -0.205)"/>
    <rect id="Rectangle_17" data-name="Rectangle 17" class="cls-4" width="15.532" height="118.607" rx="7.766" transform="translate(395.705 1.831)"/>
    <path id="Path_139" data-name="Path 139" class="cls-4" d="M879.807,36.529a6.35,6.35,0,0,1-5.466-3.172,36.4,36.4,0,0,0-12.655-12.907,41.228,41.228,0,0,0-21.842-5.7,44.433,44.433,0,0,0-22.443,5.7,40.362,40.362,0,0,0-15.7,16.333q-5.72,10.638-5.716,24.594t5.716,24.5a40.48,40.48,0,0,0,15.7,16.253,44.422,44.422,0,0,0,22.443,5.7q17.4,0,28.668-10.376a40.313,40.313,0,0,0,11.761-20.24,6.3,6.3,0,0,0-6.113-7.838H840.509a6.3,6.3,0,1,1,0-12.6h51.4a6.3,6.3,0,0,1,6.3,6.3v5.28c0,.222-.011.446-.032.667a58.766,58.766,0,0,1-9.184,26.469,56.82,56.82,0,0,1-20.649,19.23,57.942,57.942,0,0,1-28.5,7.066,60.132,60.132,0,0,1-30.209-7.744,56.958,56.958,0,0,1-21.589-21.531,61.268,61.268,0,0,1-7.933-31.136,61.753,61.753,0,0,1,7.933-31.228,56.786,56.786,0,0,1,21.589-21.61A60.126,60.126,0,0,1,839.844.793q18.938,0,33.531,9.36a52.292,52.292,0,0,1,16.468,16.738,6.306,6.306,0,0,1-5.345,9.638Z" transform="translate(-319.215 -0.325)"/>
    <path id="Path_140" data-name="Path 140" class="cls-4" d="M1148.421,121.587h-.873a10.77,10.77,0,0,1-8.982-4.828l-45.023-68.078a7.767,7.767,0,0,0-14.244,4.284v60.857a7.766,7.766,0,0,1-15.532,0V12.912a10.105,10.105,0,0,1,18.53-5.58l56.772,85.692a1.468,1.468,0,0,0,2.691-.811V10.571a7.764,7.764,0,0,1,15.529,0V112.72A8.867,8.867,0,0,1,1148.421,121.587Z" transform="translate(-435.283 -1.149)"/>
  </g>
</svg>
