<svg id="naglowek" xmlns="http://www.w3.org/2000/svg" xmlns:xlink="http://www.w3.org/1999/xlink" width="725.407" height="121.924" viewBox="0 0 725.407 121.924">
  <defs>
    <style>
      .cls-1, .cls-4 {
        fill: none;
      }

      .cls-2 {
        clip-path: url(#clip-path);
      }

      .cls-3 {
        fill: #b6a38d;
      }

      .cls-4 {
        stroke: #b6a38d;
        stroke-miterlimit: 10;
      }
    </style>
    <clipPath id="clip-path">
      <rect id="Rectangle_18" data-name="Rectangle 18" class="cls-1" width="725.407" height="121.924"/>
    </clipPath>
  </defs>
  <g id="Group_14" data-name="Group 14" class="cls-2">
    <path id="Path_124" data-name="Path 124" class="cls-3" d="M66.231,67.454l-10.711-.009A3.867,3.867,0,0,1,52.512,66L23.328,29.771a3.864,3.864,0,0,0-6.876,2.454l.027,31.282a3.879,3.879,0,0,1-3.868,3.9L3.928,67.4A3.9,3.9,0,0,1,.052,63.493L0,3.9A3.879,3.879,0,0,1,3.87,0L14.578.01a3.869,3.869,0,0,1,3.01,1.449l29.182,36.3a3.864,3.864,0,0,0,6.878-2.451l-.027-31.36a3.879,3.879,0,0,1,3.868-3.9l8.683.008a3.9,3.9,0,0,1,3.875,3.907L70.1,63.554a3.88,3.88,0,0,1-3.869,3.9" transform="matrix(0.995, 0.105, -0.105, 0.995, 6.99, 30.39)"/>
    <path id="Path_125" data-name="Path 125" class="cls-3" d="M3.937,15.985A29.073,29.073,0,0,1,14.628,4.145,28.312,28.312,0,0,1,29.711-.012,26.307,26.307,0,0,1,42.438,2.931a25.815,25.815,0,0,1,8.735,7.443l.006-5.442a3.9,3.9,0,0,1,3.876-3.907l8.8-.01a3.876,3.876,0,0,1,3.867,3.9l-.066,57.721a3.9,3.9,0,0,1-3.876,3.908l-8.8.01a3.877,3.877,0,0,1-3.867-3.9l.006-5.677a24.583,24.583,0,0,1-8.752,7.638,26.59,26.59,0,0,1-12.851,3.032,27.423,27.423,0,0,1-14.956-4.24A29.607,29.607,0,0,1,3.9,51.412a38.739,38.739,0,0,1-3.91-17.8,38.232,38.232,0,0,1,3.95-17.629m44.874,7.461a16.588,16.588,0,0,0-6.329-6.618,16.817,16.817,0,0,0-8.564-2.3,16.573,16.573,0,0,0-8.45,2.257,16.927,16.927,0,0,0-6.285,6.571,20.731,20.731,0,0,0-2.418,10.234A21.338,21.338,0,0,0,19.16,43.942a17.309,17.309,0,0,0,6.329,6.794,15.956,15.956,0,0,0,8.385,2.356,16.874,16.874,0,0,0,8.569-2.316,16.687,16.687,0,0,0,6.344-6.63,21.439,21.439,0,0,0,2.359-10.353,21.366,21.366,0,0,0-2.335-10.347" transform="translate(73.019 38.547) rotate(-8)"/>
    <path id="Path_126" data-name="Path 126" class="cls-3" d="M28.179,29.829a3.877,3.877,0,0,0-3.868,3.9l.032,27.8q0,3.313,1.592,4.79T31.273,67.8l3.756,0A3.9,3.9,0,0,1,38.9,71.712l.007,6.152a3.876,3.876,0,0,1-3.867,3.9l-6.454-.007Q7.822,81.731,7.8,61.388L7.767,33.709A3.9,3.9,0,0,0,3.89,29.8,3.9,3.9,0,0,1,.014,25.894L.008,20.1a3.876,3.876,0,0,1,3.867-3.9,3.877,3.877,0,0,0,3.868-3.9l-.01-8.4A3.877,3.877,0,0,1,11.6,0l8.8.01a3.9,3.9,0,0,1,3.877,3.908l.01,8.4a3.9,3.9,0,0,0,3.877,3.908l6.807.008a3.9,3.9,0,0,1,3.876,3.908l.007,5.8a3.876,3.876,0,0,1-3.867,3.9Z" transform="translate(154.912 16.03) rotate(8)"/>
    <path id="Path_127" data-name="Path 127" class="cls-3" d="M3.939,15.988a29.1,29.1,0,0,1,10.7-11.842A28.33,28.33,0,0,1,29.72-.014,26.3,26.3,0,0,1,42.447,2.924a25.8,25.8,0,0,1,8.734,7.44l.008-5.441a3.9,3.9,0,0,1,3.877-3.908L63.868,1a3.874,3.874,0,0,1,3.866,3.9l-.082,57.716a3.9,3.9,0,0,1-3.878,3.908l-8.8.013a3.874,3.874,0,0,1-3.866-3.9l.008-5.677A24.6,24.6,0,0,1,42.36,64.6a26.606,26.606,0,0,1-12.853,3.035A27.417,27.417,0,0,1,14.55,63.4,29.583,29.583,0,0,1,3.889,51.412a38.716,38.716,0,0,1-3.905-17.8A38.236,38.236,0,0,1,3.939,15.988m44.876,7.448a16.574,16.574,0,0,0-6.328-6.616,16.814,16.814,0,0,0-8.564-2.293,16.583,16.583,0,0,0-8.452,2.259,16.94,16.94,0,0,0-6.287,6.572,20.733,20.733,0,0,0-2.421,10.234,21.325,21.325,0,0,0,2.392,10.346,17.3,17.3,0,0,0,6.328,6.791,15.954,15.954,0,0,0,8.385,2.354,16.885,16.885,0,0,0,8.571-2.318,16.7,16.7,0,0,0,6.347-6.631,21.441,21.441,0,0,0,2.362-10.352,21.353,21.353,0,0,0-2.332-10.345" transform="matrix(0.985, -0.174, 0.174, 0.985, 183.259, 39.905)"/>
    <path id="Path_128" data-name="Path 128" class="cls-3" d="M16.426,3.908l.023,79.733a3.885,3.885,0,0,1-3.87,3.9l-8.682,0a3.89,3.89,0,0,1-3.873-3.9L0,3.9A3.885,3.885,0,0,1,3.871,0l8.682,0a3.891,3.891,0,0,1,3.873,3.9" transform="matrix(0.999, 0.035, -0.035, 0.999, 266.971, 12.287)"/>
    <path id="Path_129" data-name="Path 129" class="cls-3" d="M2.867,16.623A9.21,9.21,0,0,1,0,9.706,9.247,9.247,0,0,1,2.877,2.782,9.988,9.988,0,0,1,10.094,0a9.969,9.969,0,0,1,7.214,2.774,9.229,9.229,0,0,1,2.869,6.92A9.246,9.246,0,0,1,17.3,16.613,9.985,9.985,0,0,1,10.08,19.4a9.949,9.949,0,0,1-7.214-2.774M18.168,31.1l-.041,57.727a3.9,3.9,0,0,1-3.875,3.906l-8.682.006a3.881,3.881,0,0,1-3.869-3.9l.041-57.727a3.9,3.9,0,0,1,3.875-3.906L14.3,27.2a3.881,3.881,0,0,1,3.869,3.9" transform="matrix(0.996, -0.087, 0.087, 0.996, 285.409, 8.403)"/>
    <path id="Path_130" data-name="Path 130" class="cls-3" d="M3.924,15.952A28.893,28.893,0,0,1,14.589,4.135,28.219,28.219,0,0,1,29.663.01,26.38,26.38,0,0,1,42.4,2.98a25.977,25.977,0,0,1,8.751,7.462L51.141,5a3.878,3.878,0,0,1,3.868-3.9l8.8.009a3.9,3.9,0,0,1,3.875,3.907l.058,57.724a3.878,3.878,0,0,1-3.868,3.9l-8.8-.009A3.9,3.9,0,0,1,51.2,62.723l-.006-5.677a24.429,24.429,0,0,1-8.736,7.62,26.512,26.512,0,0,1-12.844,3A27.511,27.511,0,0,1,14.648,63.4,29.793,29.793,0,0,1,3.959,51.38,38.847,38.847,0,0,1,.012,33.573,38.132,38.132,0,0,1,3.924,15.952m44.889,7.558a16.692,16.692,0,0,0-6.343-6.632A16.869,16.869,0,0,0,33.9,14.564,16.519,16.519,0,0,0,25.456,16.8a16.821,16.821,0,0,0-6.27,6.558,20.674,20.674,0,0,0-2.4,10.229,21.4,21.4,0,0,0,2.417,10.353,17.418,17.418,0,0,0,6.343,6.808,16.007,16.007,0,0,0,8.39,2.374,16.82,16.82,0,0,0,8.564-2.3,16.583,16.583,0,0,0,6.33-6.617A21.382,21.382,0,0,0,51.17,33.863a21.427,21.427,0,0,0-2.357-10.352" transform="translate(316.976 29.602) rotate(7)"/>
    <path id="Path_131" data-name="Path 131" class="cls-3" d="M38.553,49.9,18.4,49.919a1.99,1.99,0,0,1-1.985-2l.037-42.965A4.932,4.932,0,0,0,11.539,0L5.013,0A5.025,5.025,0,0,0,.03,5.027L-.018,61.533A4.932,4.932,0,0,0,4.9,66.492l5.167,0,29.21-.025h1.447c1.474,0,2.669-1.86,2.671-4.151l0-5.2,0-3.007c.294-3.4-3.151-4.353-4.848-4.2" transform="matrix(0.995, -0.105, 0.105, 0.995, 407.097, 37.02)"/>
    <path id="Path_132" data-name="Path 132" class="cls-3" d="M61.956,3.971l.066,57.721a3.877,3.877,0,0,1-3.868,3.9l-8.8-.01a3.9,3.9,0,0,1-3.876-3.908l0-4.376a21.635,21.635,0,0,1-8.264,6.673,25.5,25.5,0,0,1-11.088,2.411,27.37,27.37,0,0,1-13.5-3.268A22.893,22.893,0,0,1,3.4,53.523,31.9,31.9,0,0,1,.041,38.438L0,3.9A3.877,3.877,0,0,1,3.869,0l8.684.01a3.9,3.9,0,0,1,3.876,3.908l.037,32.172Q16.475,43.9,20.351,48.1t10.565,4.212q6.806.008,10.675-4.187t3.857-12L45.412,3.952a3.877,3.877,0,0,1,3.867-3.9l8.8.01a3.9,3.9,0,0,1,3.877,3.908" transform="translate(461.685 30.532) rotate(8)"/>
    <path id="Path_133" data-name="Path 133" class="cls-3" d="M25.2,23.875a26.818,26.818,0,0,1,12.734-2.97A28.235,28.235,0,0,1,53.007,25.03,28.991,28.991,0,0,1,63.673,36.79a38.047,38.047,0,0,1,3.912,17.679,38.872,38.872,0,0,1-3.948,17.807,29.824,29.824,0,0,1-10.69,12.017,27.732,27.732,0,0,1-15.084,4.273,26.72,26.72,0,0,1-12.728-2.886,24.7,24.7,0,0,1-8.733-7.5L16.4,83.619a3.9,3.9,0,0,1-3.876,3.907l-8.683.009a3.878,3.878,0,0,1-3.868-3.9L.051,3.911A3.9,3.9,0,0,1,3.926,0L12.61,0a3.878,3.878,0,0,1,3.868,3.9l-.019,18.55a3.81,3.81,0,0,0,6.1,3.024A27.569,27.569,0,0,1,25.2,23.875M48.412,44.256a16.62,16.62,0,0,0-14.835-8.8,16.338,16.338,0,0,0-8.392,2.315,17.126,17.126,0,0,0-6.343,6.69,21.069,21.069,0,0,0-2.414,10.295,20.993,20.993,0,0,0,2.393,10.287,17.016,17.016,0,0,0,6.33,6.677,16.449,16.449,0,0,0,16.9-.077A17.555,17.555,0,0,0,48.391,64.9a21.344,21.344,0,0,0,2.415-10.412,20.7,20.7,0,0,0-2.394-10.23" transform="translate(522.857 17.03) rotate(-7)"/>
    <path id="Path_134" data-name="Path 134" class="cls-3" d="M16.179,63.41A30.28,30.28,0,0,1,4.354,51.5,35.882,35.882,0,0,1,.027,33.76,34.917,34.917,0,0,1,4.389,16.039,30.482,30.482,0,0,1,16.4,4.185,34.636,34.636,0,0,1,33.41.027,34.868,34.868,0,0,1,50.443,4.264,30.915,30.915,0,0,1,62.5,16.174a35.149,35.149,0,0,1,4.444,17.742,34.233,34.233,0,0,1-4.479,17.722A31.2,31.2,0,0,1,50.286,63.489,35.2,35.2,0,0,1,33.1,67.646,34.174,34.174,0,0,1,16.179,63.41M41.452,51.056a15.74,15.74,0,0,0,6.265-6.545,22.187,22.187,0,0,0,2.324-10.634Q50.02,24.54,45.135,19.5A16.037,16.037,0,0,0,33.207,14.45a15.507,15.507,0,0,0-11.786,5Q16.675,24.461,16.7,33.8T21.37,48.171a15.28,15.28,0,0,0,11.693,5.052,16.942,16.942,0,0,0,8.39-2.167" transform="translate(607.834 25.172) rotate(17)"/>
    <path id="Path_135" data-name="Path 135" class="cls-3" d="M13.248,64.752A25.215,25.215,0,0,1,3.226,56.907,20.524,20.524,0,0,1,.178,51.118a3.939,3.939,0,0,1,3.688-5.21l9.084-.015a3.712,3.712,0,0,1,3.409,2.373,9.423,9.423,0,0,0,3.072,3.884,12.758,12.758,0,0,0,8.035,2.47,12.444,12.444,0,0,0,7.338-1.9,5.762,5.762,0,0,0,2.648-4.855,5.094,5.094,0,0,0-3.219-4.782A60.419,60.419,0,0,0,23.97,39.6,85.934,85.934,0,0,1,12.064,35.96a20.519,20.519,0,0,1-7.97-5.782Q.754,26.282.765,19.66A17.112,17.112,0,0,1,3.892,9.721a21.009,21.009,0,0,1,8.931-7.11A33.282,33.282,0,0,1,26.5-.015q11.618-.02,18.535,5.823A20.882,20.882,0,0,1,52.1,17.719a3.206,3.206,0,0,1-3.118,3.869l-9.5.016a3.182,3.182,0,0,1-3.018-2.225,8.313,8.313,0,0,0-2.772-3.974,11.9,11.9,0,0,0-7.684-2.292,12.085,12.085,0,0,0-6.868,1.665A5.313,5.313,0,0,0,16.729,19.4,5.394,5.394,0,0,0,20,24.416a50.5,50.5,0,0,0,10.206,3.472,86.057,86.057,0,0,1,11.611,3.646,20.42,20.42,0,0,1,7.912,5.84q3.339,3.958,3.446,10.459A17.5,17.5,0,0,1,50.053,58.01a20.62,20.62,0,0,1-8.931,7.05,33.631,33.631,0,0,1-13.561,2.566,34,34,0,0,1-14.313-2.874" transform="matrix(0.978, -0.208, 0.208, 0.978, 659.369, 39.784)"/>
    <path id="Path_136" data-name="Path 136" class="cls-4" d="M41.96,7.374a29.95,29.95,0,0,1,12.8,12.218A37.672,37.672,0,0,1,59.213,38.3a37.38,37.38,0,0,1-4.452,18.656,29.419,29.419,0,0,1-12.8,12.069Q33.605,73.2,22.206,73.2H2.924A2.433,2.433,0,0,1,.5,70.754V5.82A2.709,2.709,0,0,1,3.2,3.1H22.206Q33.607,3.1,41.96,7.374Zm.85,51.091q7.1-7.189,7.1-20.165,0-13.076-7.152-20.417T22.206,10.541H13.3A3.707,3.707,0,0,0,9.6,14.263V61.932A3.707,3.707,0,0,0,13.3,65.654h8.91Q35.708,65.654,42.809,58.465Z" transform="translate(149.164 22.916)"/>
    <path id="Path_137" data-name="Path 137" class="cls-4" d="M262.926,14.072V30.061a3.707,3.707,0,0,0,3.692,3.722h18.02a3.707,3.707,0,0,1,3.692,3.722v.1a3.707,3.707,0,0,1-3.692,3.722h-18.02a3.707,3.707,0,0,0-3.692,3.722V61.741a3.707,3.707,0,0,0,3.692,3.722h21.021a3.707,3.707,0,0,1,3.692,3.722v.1a3.707,3.707,0,0,1-3.692,3.722H257.515a3.707,3.707,0,0,1-3.692-3.722V6.529a3.707,3.707,0,0,1,3.692-3.722h30.124a3.707,3.707,0,0,1,3.692,3.722v.1a3.707,3.707,0,0,1-3.692,3.722H266.618A3.707,3.707,0,0,0,262.926,14.072Z" transform="translate(-16.442 23.106)"/>
    <path id="Path_138" data-name="Path 138" class="cls-4" d="M457.839,69.745a20.57,20.57,0,0,1-8.551-6.839,16.939,16.939,0,0,1-2.57-5.46A3.706,3.706,0,0,1,450.3,52.8h2.484a3.692,3.692,0,0,1,3.528,2.639,12.763,12.763,0,0,0,3.531,5.658q3.552,3.371,10.354,3.371,6.5,0,10.252-3.269a10.628,10.628,0,0,0,3.751-8.4,9.571,9.571,0,0,0-2.2-6.537,14.072,14.072,0,0,0-5.5-3.819,85.269,85.269,0,0,0-8.9-2.817A78.077,78.077,0,0,1,456.54,36a17.788,17.788,0,0,1-7.1-5.681q-2.954-3.871-2.952-10.411a18.1,18.1,0,0,1,2.9-10.155,18.908,18.908,0,0,1,8.152-6.839A28.537,28.537,0,0,1,469.591.5q9.8,0,16.054,4.93a18.018,18.018,0,0,1,5.952,8.11,3.711,3.711,0,0,1-3.482,4.964h-2.588a3.749,3.749,0,0,1-3.455-2.411,11.885,11.885,0,0,0-3.579-4.68q-3.7-3.064-9.8-3.068a14.159,14.159,0,0,0-9.3,2.966,10.159,10.159,0,0,0-3.6,8.3,9.021,9.021,0,0,0,2.151,6.239,13.858,13.858,0,0,0,5.3,3.669q3.15,1.261,8.852,2.868a82.518,82.518,0,0,1,11.1,3.771,18.549,18.549,0,0,1,7.2,5.732q3,3.871,3,10.509a18.55,18.55,0,0,1-2.7,9.656,19.88,19.88,0,0,1-8,7.338,26.286,26.286,0,0,1-12.5,2.817A29.688,29.688,0,0,1,457.839,69.745Z" transform="translate(-142.393 24.608)"/>
    <rect id="Rectangle_17" data-name="Rectangle 17" class="cls-4" width="9.103" height="70.097" rx="4.552" transform="translate(381.409 26.016)"/>
    <path id="Path_139" data-name="Path 139" class="cls-4" d="M838.543,21.913a3.716,3.716,0,0,1-3.2-1.875,21.428,21.428,0,0,0-7.417-7.628,24.008,24.008,0,0,0-12.8-3.371,25.871,25.871,0,0,0-13.153,3.371,23.767,23.767,0,0,0-9.2,9.653,30.428,30.428,0,0,0-3.35,14.535,30.118,30.118,0,0,0,3.35,14.481,23.834,23.834,0,0,0,9.2,9.605,25.865,25.865,0,0,0,13.153,3.367q10.2,0,16.8-6.132a23.869,23.869,0,0,0,6.893-11.962,3.716,3.716,0,0,0-3.582-4.632H815.511a3.722,3.722,0,0,1,0-7.445h30.125a3.707,3.707,0,0,1,3.692,3.722v3.121c0,.131-.006.264-.019.394a34.922,34.922,0,0,1-5.383,15.643,33.582,33.582,0,0,1-28.8,15.541,35.013,35.013,0,0,1-17.7-4.577A33.522,33.522,0,0,1,784.763,55a36.448,36.448,0,0,1-4.649-18.4,36.737,36.737,0,0,1,4.649-18.456A33.422,33.422,0,0,1,797.416,5.37a35.01,35.01,0,0,1,17.7-4.577,35.4,35.4,0,0,1,19.652,5.532,30.784,30.784,0,0,1,9.652,9.892,3.728,3.728,0,0,1-3.133,5.7Z" transform="translate(-360.496 24.417)"/>
    <path id="Path_140" data-name="Path 140" class="cls-4" d="M1113.382,73.006h-.511a6.3,6.3,0,0,1-5.264-2.854l-26.387-40.234a4.546,4.546,0,0,0-8.349,2.532V68.417a4.552,4.552,0,1,1-9.1,0V8.779a5.913,5.913,0,0,1,10.86-3.3L1107.9,56.125a.859.859,0,0,0,1.577-.479V7.4a4.551,4.551,0,1,1,9.1,0v60.37A5.219,5.219,0,0,1,1113.382,73.006Z" transform="translate(-545.93 23.106)"/>
  </g>
</svg>
